<svg xmlns="http://www.w3.org/2000/svg" viewBox="0 0 120 120" fill="none">
  <rect x="15" y="55" width="35" height="50" fill="none" stroke="#c9a84c" stroke-width="2.5"/>
  <rect x="70" y="40" width="35" height="65" fill="none" stroke="#c9a84c" stroke-width="2.5"/>
  <rect x="40" y="20" width="40" height="85" fill="none" stroke="#e8c97a" stroke-width="3"/>
  <rect x="52" y="30" width="8" height="10" rx="1" fill="#c9a84c"/>
  <rect x="64" y="30" width="8" height="10" rx="1" fill="#c9a84c"/>
  <rect x="52" y="48" width="8" height="10" rx="1" fill="#c9a84c"/>
  <rect x="64" y="48" width="8" height="10" rx="1" fill="#c9a84c"/>
  <rect x="56" y="78" width="12" height="27" rx="1" fill="#c9a84c"/>
  <rect x="22" y="65" width="7" height="8" rx="1" fill="#c9a84c"/>
  <rect x="35" y="65" width="7" height="8" rx="1" fill="#c9a84c"/>
  <rect x="22" y="80" width="7" height="8" rx="1" fill="#c9a84c"/>
  <rect x="35" y="80" width="7" height="8" rx="1" fill="#c9a84c"/>
  <rect x="77" y="50" width="7" height="8" rx="1" fill="#c9a84c"/>
  <rect x="90" y="50" width="7" height="8" rx="1" fill="#c9a84c"/>
  <rect x="77" y="65" width="7" height="8" rx="1" fill="#c9a84c"/>
  <rect x="90" y="65" width="7" height="8" rx="1" fill="#c9a84c"/>
  <polygon points="40,20 60,8 80,20" fill="#e8c97a"/>
</svg>